<svg width="248" height="344" viewBox="0 0 248 344" fill="none" xmlns="http://www.w3.org/2000/svg">
<g filter="url(#filter0_i_1_49)">
<path d="M231 221C231 280.094 183.094 328 124 328C64.9055 328 17 280.094 17 221C17 161.906 54 17 124 17C194 17 231 161.906 231 221Z" fill="#D9D9D9"/>
</g>
<path d="M124 333.5C186.132 333.5 236.5 283.132 236.5 221C236.5 190.662 227.08 138.951 208.834 94.7413C199.703 72.6173 188.217 52.0106 174.303 36.8463C160.371 21.664 143.572 11.5 124 11.5C104.428 11.5 87.6285 21.664 73.6975 36.8463C59.783 52.0106 48.297 72.6173 39.166 94.7413C20.9198 138.951 11.5 190.662 11.5 221C11.5 283.132 61.868 333.5 124 333.5Z" stroke="#A8493A" stroke-width="11"/>
<circle cx="124" cy="220" r="64" fill="#F59D18"/>
<path d="M161.564 196.176C163.676 205.324 157.972 214.452 148.824 216.564C139.676 218.676 130.548 212.972 128.436 203.824C126.324 194.676 132.028 185.548 141.176 183.436C150.324 181.324 159.452 187.028 161.564 196.176Z" fill="white"/>
<path d="M157.779 197.563C159.581 205.366 154.716 213.152 146.913 214.953C139.11 216.754 131.324 211.889 129.523 204.086C127.721 196.284 132.586 188.498 140.389 186.696C148.192 184.895 155.978 189.76 157.779 197.563Z" fill="#2F2F2F"/>
<path d="M92.847 187.17C99.9328 181.01 110.67 181.761 116.83 188.847C122.99 195.933 122.239 206.67 115.153 212.83C108.067 218.99 97.3296 218.239 91.1699 211.153C85.0103 204.067 85.7611 193.33 92.847 187.17Z" fill="white"/>
<path d="M95.8486 189.861C101.892 184.607 111.051 185.247 116.305 191.291C121.559 197.335 120.918 206.494 114.874 211.747C108.83 217.001 99.672 216.361 94.4182 210.317C89.1643 204.273 89.8048 195.115 95.8486 189.861Z" fill="#2F2F2F"/>
<circle cx="164.5" cy="233.5" r="4.5" fill="#C45A4A" fill-opacity="0.75"/>
<circle cx="83.5" cy="233.5" r="4.5" fill="#C45A4A" fill-opacity="0.75"/>
<path d="M106 228.583C112.918 242.196 136.565 239.544 140.971 228.91" stroke="#2F2F2F" stroke-width="3" stroke-linecap="round"/>
<defs>
<filter id="filter0_i_1_49" x="6" y="6" width="236" height="333" filterUnits="userSpaceOnUse" color-interpolation-filters="sRGB">
<feFlood flood-opacity="0" result="BackgroundImageFix"/>
<feBlend mode="normal" in="SourceGraphic" in2="BackgroundImageFix" result="shape"/>
<feColorMatrix in="SourceAlpha" type="matrix" values="0 0 0 0 0 0 0 0 0 0 0 0 0 0 0 0 0 0 127 0" result="hardAlpha"/>
<feOffset dx="-27" dy="-8"/>
<feComposite in2="hardAlpha" operator="arithmetic" k2="-1" k3="1"/>
<feColorMatrix type="matrix" values="0 0 0 0 0 0 0 0 0 0 0 0 0 0 0 0 0 0 0.05 0"/>
<feBlend mode="normal" in2="shape" result="effect1_innerShadow_1_49"/>
</filter>
</defs>
</svg>
